# xmcd
# Copyright (C) 1995-1998 Ti Kan
#
# Track frame offsets:
#       150
#       11854
#       30786
#       54481
#
# Disc length: 929 seconds
#
# Revision: 0
# Processed by: cddbd v1.5.2PL0 Copyright (c) Steve Scherf et al.
# Submitted via: CD-Import v1.0
#
DISCID=24039f04
DTITLE=Tumblin Dice - Freeride
DYEAR=07
DGENRE=
TTITLE0=I Wanna Have Fun
TTITLE1=The Man
TTITLE2=Hide
TTITLE3=Rose Garden
EXTD=
EXTT0=
EXTT1=
EXTT2=
EXTT3=
PLAYORDER=
